<?xml version="1.0" encoding="UTF-8"?>
<svg id="Layer_1" data-name="Layer 1" xmlns="http://www.w3.org/2000/svg" version="1.1" viewBox="0 0 500 500">
  <defs>
    <style>
      .cls-1 {
        fill: #939598;
        stroke-width: 0px;
      }
    </style>
  </defs>
  <path class="cls-1" d="M378.8,183.8c-4.4-41.4-28.9-73.1-58.5-73.1s-20.4,4-28.9,11c-16.3-28.4-40.8-46.4-68.2-46.4-47.3,0-86,53.9-88.9,121.8,0,0-.1,0-.2,0-32.7,0-59.2,38.7-59.2,86.4s26.5,86.4,59.2,86.4,18.4-3.3,26.3-9c6.7,36.9,29.8,64.1,57.2,64.1s30.8-9.5,41.5-24.8c10.4,13.2,24,21.2,38.9,21.2,28.4,0,52.2-29.2,57.9-68.1,3.2.8,6.5,1.2,9.8,1.2,32.7,0,59.2-38.7,59.2-86.4s-19.8-75.6-46.2-84.3ZM226.5,219.3l-53.1,30.7,53.1,30.5v40.9l-116.5-71.4,116.5-71.2v40.6ZM273.5,321.3v-40.9l53.1-30.5-53.1-30.7v-40.6l116.5,71.2-116.5,71.4Z"/>
</svg>