<?xml version="1.0" encoding="UTF-8"?>
<svg id="Layer_1" data-name="Layer 1" xmlns="http://www.w3.org/2000/svg" version="1.1" viewBox="0 0 500 500">
  <defs>
    <style>
      .cls-1 {
        fill: #939598;
        stroke-width: 0px;
      }
    </style>
  </defs>
  <path class="cls-1" d="M378.8,183.8c-4.4-41.4-28.9-73.1-58.5-73.1s-20.4,4-28.9,11c-16.3-28.4-40.8-46.4-68.2-46.4-47.3,0-86,53.9-88.9,121.8,0,0-.1,0-.2,0-32.7,0-59.2,38.7-59.2,86.4s26.5,86.4,59.2,86.4,18.4-3.3,26.3-9c6.7,36.9,29.8,64.1,57.2,64.1s30.8-9.5,41.5-24.8c10.4,13.2,24,21.2,38.9,21.2,28.4,0,52.2-29.2,57.9-68.1,3.2.8,6.5,1.2,9.8,1.2,32.7,0,59.2-38.7,59.2-86.4s-19.8-75.6-46.2-84.3ZM195.5,193.4h-15.5v130.2h15.5v15.1h-31.4v-160.4h31.4v15.1ZM225.8,311.9h-17.6v-17.6h17.6v17.6ZM264,311.9h-17.6v-17.6h17.6v17.6ZM302.1,311.9h-17.6v-17.6h17.6v17.6ZM346.3,338.7h-31.4v-15.1h15.5v-130.2h-15.5v-15.1h31.4v160.4Z"/>
</svg>