<?xml version="1.0" encoding="UTF-8"?>
<svg id="Layer_1" data-name="Layer 1" xmlns="http://www.w3.org/2000/svg" version="1.1" viewBox="0 0 500 500">
  <defs>
    <style>
      .cls-1 {
        fill: #000;
      }

      .cls-1, .cls-2, .cls-3 {
        stroke-width: 0px;
      }

      .cls-2 {
        fill: none;
      }

      .cls-3 {
        fill: #939598;
      }
    </style>
  </defs>
  <rect class="cls-2" width="500" height="500"/>
  <path class="cls-1" d="M418.3,234.4l-152.8-152.8c-8.8-8.8-23.1-8.8-31.9,0l-31.7,31.7,40.3,40.3c9.4-3.2,20.1-1,27.5,6.4s9.6,18.3,6.4,27.7l38.8,38.8c9.4-3.2,20.2-1.1,27.7,6.4s10.5,27.4,0,37.9-27.5,10.5-37.9,0c-7.9-7.9-9.8-19.5-5.8-29.2l-36.2-36.2v95.2c2.6,1.3,5,2.9,7.1,5.1,10.5,10.5,10.5,27.4,0,37.9s-27.5,10.5-37.9,0c-10.5-10.5-10.5-27.5,0-37.9,2.6-2.6,5.6-4.5,8.8-5.9v-96.1c-3.2-1.3-6.2-3.2-8.8-5.9-7.9-7.9-9.8-19.6-5.8-29.3l-39.7-39.7-104.8,104.8c-8.8,8.8-8.8,23.1,0,31.9l152.8,152.8c8.8,8.8,23.1,8.8,31.9,0l152.1-152.1c8.8-8.8,8.8-23.1,0-31.9h-.1Z"/>
  <path class="cls-3" d="M415.3,231.4l-152.8-152.8c-8.8-8.8-23.1-8.8-31.9,0l-31.7,31.7,40.3,40.3c9.4-3.2,20.1-1,27.5,6.4s9.6,18.3,6.4,27.7l38.8,38.8c9.4-3.2,20.2-1.1,27.7,6.4s10.5,27.4,0,37.9-27.5,10.5-37.9,0c-7.9-7.9-9.8-19.5-5.8-29.2l-36.2-36.2v95.2c2.6,1.3,5,2.9,7.1,5.1,10.5,10.5,10.5,27.4,0,37.9s-27.5,10.5-37.9,0c-10.5-10.5-10.5-27.5,0-37.9,2.6-2.6,5.6-4.5,8.8-5.9v-96.1c-3.2-1.3-6.2-3.2-8.8-5.9-7.9-7.9-9.8-19.6-5.8-29.3l-39.7-39.7-104.8,104.8c-8.8,8.8-8.8,23.1,0,31.9l152.8,152.8c8.8,8.8,23.1,8.8,31.9,0l152.1-152.1c8.8-8.8,8.8-23.1,0-31.9h-.1Z"/>
</svg>