<?xml version="1.0" encoding="UTF-8"?>
<svg id="Layer_1" data-name="Layer 1" xmlns="http://www.w3.org/2000/svg" version="1.1" viewBox="0 0 500 500">
  <defs>
    <style>
      .cls-1 {
        fill: #000;
      }

      .cls-1, .cls-2, .cls-3 {
        stroke-width: 0px;
      }

      .cls-2 {
        fill: none;
      }

      .cls-3 {
        fill: #939598;
      }
    </style>
  </defs>
  <rect class="cls-2" width="500" height="500"/>
  <g>
    <path class="cls-1" d="M296.6,269.6h-.1c14.7-20.2,23.5-45.1,23.5-72.1,0-67.7-54.8-122.5-122.5-122.5s-122.5,54.8-122.5,122.5,56.3,129.2,123.6,121.8c56.4-6.2,57.2-12.2,72.7-24l126.2,126.2,25.5-25.5-126.4-126.4ZM197.5,298c-55.4,0-100.5-45.1-100.5-100.5s45.1-100.5,100.5-100.5,100.5,45.1,100.5,100.5-45.1,100.5-100.5,100.5Z"/>
    <path class="cls-1" d="M197.5,117c-44.4,0-80.5,36.1-80.5,80.5s36.1,80.5,80.5,80.5,80.5-36.1,80.5-80.5-36.1-80.5-80.5-80.5Z"/>
  </g>
  <g>
    <path class="cls-3" d="M293.6,266.6h-.1c14.7-20.2,23.5-45.1,23.5-72.1,0-67.7-54.8-122.5-122.5-122.5s-122.5,54.8-122.5,122.5,56.3,129.2,123.6,121.8c56.4-6.2,57.2-12.2,72.7-24l126.2,126.2,25.5-25.5-126.4-126.4ZM194.5,295c-55.4,0-100.5-45.1-100.5-100.5s45.1-100.5,100.5-100.5,100.5,45.1,100.5,100.5-45.1,100.5-100.5,100.5Z"/>
    <path class="cls-3" d="M194.5,114c-44.4,0-80.5,36.1-80.5,80.5s36.1,80.5,80.5,80.5,80.5-36.1,80.5-80.5-36.1-80.5-80.5-80.5Z"/>
  </g>
</svg>