<?xml version="1.0" encoding="UTF-8"?>
<svg id="Layer_1" data-name="Layer 1" xmlns="http://www.w3.org/2000/svg" version="1.1" viewBox="0 0 500 500">
  <defs>
    <style>
      .cls-1 {
        fill: #000;
      }

      .cls-1, .cls-2, .cls-3 {
        stroke-width: 0px;
      }

      .cls-2 {
        fill: none;
      }

      .cls-3 {
        fill: #939598;
      }
    </style>
  </defs>
  <rect class="cls-2" width="500" height="500"/>
  <path class="cls-1" d="M87,328.3c1.6,4.3,6.4,6.5,10.6,4.9l14.2-5.2c4.3-1.6,10,.1,12.7,3.8l35.9,38.1c3.4,2.9,4.7,8.7,2.8,12.8l-6.1,13.1c-1.9,4.1-.1,9.1,4,11l31.6,14.7c4.1,1.9,9,.1,11-4l6.6-14.3c1.9-4.2,7.2-7,11.7-6.4l45.1,1.3c4.5-.3,9.5,2.9,11.1,7.2l5.3,14.6c1.6,4.3,6.3,6.5,10.6,4.9l32.8-12c4.3-1.5,6.5-6.3,4.9-10.6l-5.3-14.6c-1.5-4.2.2-10,3.8-12.7l38.5-36.2c2.9-3.5,8.6-4.7,12.7-2.9l14,6.5c4.1,1.9,9.1.1,11-4l14.7-31.7c1.9-4.1.1-9.1-4-11l-15.2-7.1c-4.2-1.9-7-7.1-6.4-11.7l1.3-44.6c-.4-4.6,2.9-9.5,7.2-11.1l15.5-5.6c4.3-1.6,6.4-6.3,4.9-10.6l-12-32.8c-1.6-4.3-6.3-6.5-10.6-5l-15.5,5.7c-4.3,1.6-10-.1-12.7-3.8l-35.4-37.9c-3.5-2.9-4.8-8.6-2.9-12.8l6.8-14.5c1.9-4.1.1-9-4-11l-31.7-14.7c-4.1-1.9-9.1,0-10.9,4l-7.3,15.5c-1.9,4.1-7.1,6.9-11.7,6.3l-45.6-1.4c-4.5.3-9.5-2.9-11-7.2l-5.5-15.2c-1.6-4.3-6.3-6.5-10.6-4.9l-32.8,12c-4.3,1.5-6.5,6.3-4.9,10.6l5.6,15.2c1.5,4.2-.2,9.9-3.9,12.7l-37.6,35.1c-2.9,3.4-8.6,4.7-12.8,2.8l-13.7-6.4c-4.1-1.9-9.1,0-11,4l-14.7,31.7c-1.9,4.1,0,9,4,10.9l14.6,6.8c4.1,2,6.9,7.2,6.3,11.7l-1.5,46c.4,4.5-2.9,9.5-7.2,11.1l-14.2,5.2c-4.2,1.5-6.5,6.3-4.9,10.6l12,32.8-.2.3ZM229.4,194.8c30.5-11.1,64.2,4.6,75.3,35,11.1,30.5-4.5,64.2-35,75.3s-64.2-4.6-75.3-35c-11.1-30.5,4.6-64.2,35-75.3h0Z"/>
  <path class="cls-3" d="M84,325.3c1.6,4.3,6.4,6.5,10.6,4.9l14.2-5.2c4.3-1.6,10,.1,12.7,3.8l35.9,38.1c3.4,2.9,4.7,8.7,2.8,12.8l-6.1,13.1c-1.9,4.1-.1,9.1,4,11l31.6,14.7c4.1,1.9,9,.1,11-4l6.6-14.3c1.9-4.2,7.2-7,11.7-6.4l45.1,1.3c4.5-.3,9.5,2.9,11.1,7.2l5.3,14.6c1.6,4.3,6.3,6.5,10.6,4.9l32.8-12c4.3-1.5,6.5-6.3,4.9-10.6l-5.3-14.6c-1.5-4.2.2-10,3.8-12.7l38.5-36.2c2.9-3.5,8.6-4.7,12.7-2.9l14,6.5c4.1,1.9,9.1.1,11-4l14.7-31.7c1.9-4.1.1-9.1-4-11l-15.2-7.1c-4.2-1.9-7-7.1-6.4-11.7l1.3-44.6c-.4-4.6,2.9-9.5,7.2-11.1l15.5-5.6c4.3-1.6,6.4-6.3,4.9-10.6l-12-32.8c-1.6-4.3-6.3-6.5-10.6-5l-15.5,5.7c-4.3,1.6-10-.1-12.7-3.8l-35.4-37.9c-3.5-2.9-4.8-8.6-2.9-12.8l6.8-14.5c1.9-4.1.1-9-4-11l-31.7-14.7c-4.1-1.9-9.1,0-10.9,4l-7.3,15.5c-1.9,4.1-7.1,6.9-11.7,6.3l-45.6-1.4c-4.5.3-9.5-2.9-11-7.2l-5.5-15.2c-1.6-4.3-6.3-6.5-10.6-4.9l-32.8,12c-4.3,1.5-6.5,6.3-4.9,10.6l5.6,15.2c1.5,4.2-.2,9.9-3.9,12.7l-37.6,35.1c-2.9,3.4-8.6,4.7-12.8,2.8l-13.7-6.4c-4.1-1.9-9.1,0-11,4l-14.7,31.7c-1.9,4.1,0,9,4,10.9l14.6,6.8c4.1,2,6.9,7.2,6.3,11.7l-1.5,46c.4,4.5-2.9,9.5-7.2,11.1l-14.2,5.2c-4.2,1.5-6.5,6.3-4.9,10.6l12,32.8-.2.3ZM226.4,191.8c30.5-11.1,64.2,4.6,75.3,35,11.1,30.5-4.5,64.2-35,75.3s-64.2-4.6-75.3-35c-11.1-30.5,4.6-64.2,35-75.3h0Z"/>
</svg>